<svg width="140" height="107" viewBox="0 0 140 107" fill="none" xmlns="http://www.w3.org/2000/svg">
<path d="M29.569 78.8223C24.1379 78.8223 19.9137 84.8855 19.9137 92.6811C19.9137 100.477 24.1379 106.54 29.569 106.54C35 106.54 39.2242 100.477 39.2242 92.6811C39.2242 84.8855 35 78.8223 29.569 78.8223ZM86.8966 0H82.0691V16.8905H100.173L86.8966 0ZM0.603394 95.2796H12.6724C12.6724 95.2796 13.2758 69.2943 30.7758 69.2943C43.75 69.2943 45.8621 95.2796 45.8621 95.2796H76.0346V0H0L0.603394 95.2796ZM114.655 78.8223C109.224 78.8223 105 84.8855 105 92.6811C105 100.477 109.224 106.54 114.655 106.54C120.086 106.54 124.31 100.477 124.31 92.6811C124.31 84.8855 119.785 78.8223 114.655 78.8223ZM103.19 21.6545H82.0691V95.2796H100.173C100.173 95.2796 97.7587 73.6252 115.259 73.6252C128.535 73.6252 128.233 95.2796 128.233 95.2796H139.397L140 62.7979L103.19 21.6545ZM100.173 77.9561H88.1036V69.2943H100.173V77.9561ZM98.9656 62.3648L86.8966 51.9707V27.7177H98.9656L130.345 62.3648H98.9656Z" fill="white" fill-opacity="0.4"/>
</svg>
